<svg height="540" width="360" xmlns="http://www.w3.org/2000/svg">
    <path
        d="M20 30v20h10c2.77 0 5 2.23 5 5v15c0 2.77-2.23 5-5 5s-5-2.23-5-5v-5h-5v5c0 5.54 4.46 10 10 10s10-4.46 10-10V55c0-5.54-4.46-10-10-10h-5V35h15v-5H25zM340 510v-20h-10c-2.77 0-5-2.23-5-5v-15c0-2.77 2.23-5 5-5s5 2.23 5 5v5h5v-5c0-5.54-4.46-10-10-10s-10 4.46-10 10v15c0 5.54 4.46 10 10 10h5v10h-15v5h15zM95.008 100.984c.992 4.004 4.996 14.032 11.976 14.032 9 0 13.004-8.008 13.004-18 0-7.016-2.551-11.622-4.996-17.008-2.586-5.74-6.378-10.878-9.992-16.016C100.358 57.402 90.012 45 90.012 45S79.63 57.402 74.988 63.992c-3.614 5.138-7.405 10.276-9.992 16.016C62.586 85.394 60 90 60 97.016c0 9.992 4.004 18 13.004 18 6.98 0 10.984-10.028 12.012-14.032.992-.992.992 0 .992 1.028-.992 7.972-.992 9.992-2.02 15.98-.992 6.024-4.004 17.008-4.004 17.008 5.032-1.984 15.024-1.984 20.02 0 0 0-3.012-10.984-4.004-17.008-.992-5.988-.992-8.008-1.984-15.98 0-1.028 0-2.02.992-1.028zM275.008 100.984c.992 4.004 4.996 14.032 11.976 14.032 9 0 13.004-8.008 13.004-18 0-7.016-2.551-11.622-4.996-17.008-2.586-5.74-6.378-10.878-9.992-16.016C280.358 57.402 270.012 45 270.012 45s-10.382 12.402-15.024 18.992c-3.614 5.138-7.405 10.276-9.992 16.016C242.586 85.394 240 90 240 97.016c0 9.992 4.004 18 13.004 18 6.98 0 10.984-10.028 12.012-14.032.992-.992.992 0 .992 1.028-.992 7.972-.992 9.992-2.02 15.98-.992 6.024-4.004 17.008-4.004 17.008 5.032-1.984 15.024-1.984 20.02 0 0 0-3.012-10.984-4.004-17.008-.992-5.988-.992-8.008-1.984-15.98 0-1.028 0-2.02.992-1.028zM185.008 280.984c.992 4.004 4.996 14.032 11.976 14.032 9 0 13.004-8.008 13.004-18 0-7.016-2.551-11.622-4.996-17.008-2.586-5.74-6.378-10.878-9.992-16.016-4.642-6.59-14.988-18.992-14.988-18.992s-10.382 12.402-15.024 18.992c-3.614 5.138-7.405 10.276-9.992 16.016-2.41 5.386-4.996 9.992-4.996 17.008 0 9.992 4.004 18 13.004 18 6.98 0 10.984-10.028 12.012-14.032.992-.992.992 0 .992 1.028-.992 7.972-.992 9.992-2.02 15.98-.992 6.024-4.004 17.008-4.004 17.008 5.032-1.984 15.024-1.984 20.02 0 0 0-3.012-10.984-4.004-17.008-.992-5.988-.992-8.008-1.984-15.98 0-1.028 0-2.02.992-1.028zM95.008 439.016c.992-4.004 4.996-14.032 11.976-14.032 9 0 13.004 8.008 13.004 18 0 7.016-2.551 11.622-4.996 17.008-2.586 5.74-6.378 10.878-9.992 16.016C100.358 482.598 90.012 495 90.012 495s-10.382-12.402-15.024-18.992c-3.614-5.138-7.405-10.276-9.992-16.016C62.586 454.606 60 450 60 442.984c0-9.992 4.004-18 13.004-18 6.98 0 10.984 10.028 12.012 14.032.992.992.992 0 .992-1.028-.992-7.972-.992-9.992-2.02-15.98-.992-6.024-4.004-17.008-4.004-17.008 5.032 1.984 15.024 1.984 20.02 0 0 0-3.012 10.984-4.004 17.008-.992 5.988-.992 8.008-1.984 15.98 0 1.028 0 2.02.992 1.028zM275.008 439.016c.992-4.004 4.996-14.032 11.976-14.032 9 0 13.004 8.008 13.004 18 0 7.016-2.551 11.622-4.996 17.008-2.586 5.74-6.378 10.878-9.992 16.016-4.642 6.59-14.988 18.992-14.988 18.992s-10.382-12.402-15.024-18.992c-3.614-5.138-7.405-10.276-9.992-16.016-2.41-5.386-4.996-9.992-4.996-17.008 0-9.992 4.004-18 13.004-18 6.98 0 10.984 10.028 12.012 14.032.992.992.992 0 .992-1.028-.992-7.972-.992-9.992-2.02-15.98-.992-6.024-4.004-17.008-4.004-17.008 5.032 1.984 15.024 1.984 20.02 0 0 0-3.012 10.984-4.004 17.008-.992 5.988-.992 8.008-1.984 15.98 0 1.028 0 2.02.992 1.028zM32.5 118c.5 2 2.5 7 6 7 4.5 0 6.5-4 6.5-9 0-3.5-1.29-5.806-2.5-8.5-1.289-2.868-3.19-5.429-5-8C35.177 96.201 30 90 30 90s-5.177 6.201-7.5 9.5c-1.81 2.571-3.711 5.132-5 8-1.21 2.694-2.5 5-2.5 8.5 0 5 2 9 6.5 9 3.5 0 5.5-5 6-7 .5-.5.5 0 .5.5-.5 4-.5 5-1 8s-2 8.5-2 8.5c2.5-1 7.5-1 10 0 0 0-1.5-5.5-2-8.5s-.5-4-1-8c0-.5 0-1 .5-.5zM332.5 422c.5-2 2.5-7 6-7 4.5 0 6.5 4 6.5 9 0 3.5-1.29 5.806-2.5 8.5-1.289 2.868-3.19 5.429-5 8-2.323 3.299-7.5 9.5-7.5 9.5s-5.177-6.201-7.5-9.5c-1.81-2.571-3.711-5.132-5-8-1.21-2.694-2.5-5-2.5-8.5 0-5 2-9 6.5-9 3.5 0 5.5 5 6 7 .5.5.5 0 .5-.5-.5-4-.5-5-1-8s-2-8.5-2-8.5c2.5 1 7.5 1 10 0 0 0-1.5 5.5-2 8.5s-.5 4-1 8c0 .5 0 1 .5.5z" />
</svg>