<svg height="540" width="360" xmlns="http://www.w3.org/2000/svg">
    <path
        d="M179 245c0-11.046-5.716-20-14-20-8.284 0-15 8.954-15 20 .035.956.018 1.891 0 2.812 0 7.299 2.677 14.377 5 21 2.389 6.811 5.834 12.781 9.063 18.875C169.063 297.127 180 315 180 315s10.936-17.873 15.938-27.313c3.228-6.094 6.673-12.064 9.062-18.875 2.323-6.623 5-13.701 5-21a56.086 56.086 0 0 1 0-2.812c0-11.046-6.716-20-15-20-8.284 0-14 8.954-14 20zM20 30v20h10c2.77 0 5 2.23 5 5v15c0 2.77-2.23 5-5 5s-5-2.23-5-5v-5h-5v5c0 5.54 4.46 10 10 10s10-4.46 10-10V55c0-5.54-4.46-10-10-10h-5V35h15v-5H25zM340 510v-20h-10c-2.77 0-5-2.23-5-5v-15c0-2.77 2.23-5 5-5s5 2.23 5 5v5h5v-5c0-5.54-4.46-10-10-10s-10 4.46-10 10v15c0 5.54 4.46 10 10 10h5v10h-15v5h15zM89 63c0-11.046-5.716-18-14-18-8.284 0-15 8.954-15 20 .035.956.018 1.891 0 2.812 0 7.299 2.677 14.377 5 21 2.389 6.811 5.834 12.781 9.063 18.875C79.063 117.127 90 135 90 135s10.936-17.873 15.938-27.313c3.228-6.094 6.673-12.064 9.062-18.875 2.323-6.623 5-13.701 5-21A56.086 56.086 0 0 1 120 65c0-11.046-6.716-20-15-20-8.284 0-14 6.954-14 18 0 2-2 2-2 0zM269 63c0-11.046-5.716-18-14-18-8.284 0-15 8.954-15 20 .035.956.018 1.891 0 2.812 0 7.299 2.677 14.377 5 21 2.389 6.811 5.834 12.781 9.063 18.875C259.063 117.127 270 135 270 135s10.936-17.873 15.938-27.313c3.228-6.094 6.673-12.064 9.062-18.875 2.323-6.623 5-13.701 5-21A56.086 56.086 0 0 1 300 65c0-11.046-6.716-20-15-20-8.284 0-14 6.954-14 18 0 2-2 2-2 0z" />
    <path
        d="M179 243c0-11.046-5.716-18-14-18-8.284 0-15 8.954-15 20 .035.956.018 1.891 0 2.812 0 7.299 2.677 14.377 5 21 2.389 6.811 5.834 12.781 9.063 18.875C169.063 297.127 180 315 180 315s10.936-17.873 15.938-27.313c3.228-6.094 6.673-12.064 9.062-18.875 2.323-6.623 5-13.701 5-21a56.086 56.086 0 0 1 0-2.812c0-11.046-6.716-20-15-20-8.284 0-14 6.954-14 18 0 2-2 2-2 0zM89 477c0 11.046-5.716 18-14 18-8.284 0-15-8.954-15-20 .035-.956.018-1.891 0-2.812 0-7.299 2.677-14.377 5-21 2.389-6.811 5.834-12.781 9.063-18.875C79.063 422.873 90 405 90 405s10.936 17.873 15.938 27.313c3.228 6.094 6.673 12.064 9.062 18.875 2.323 6.623 5 13.701 5 21a56.086 56.086 0 0 0 0 2.812c0 11.046-6.716 20-15 20-8.284 0-14-6.954-14-18 0-2-2-2-2 0zM269 477c0 11.046-5.716 18-14 18-8.284 0-15-8.954-15-20 .035-.956.018-1.891 0-2.812 0-7.299 2.677-14.377 5-21 2.389-6.811 5.834-12.781 9.063-18.875C259.063 422.873 270 405 270 405s10.936 17.873 15.938 27.313c3.228 6.094 6.673 12.064 9.062 18.875 2.323 6.623 5 13.701 5 21a56.086 56.086 0 0 0 0 2.812c0 11.046-6.716 20-15 20-8.284 0-14-6.954-14-18 0-2-2-2-2 0zM29.5 99c0-5.523-2.858-9-7-9-4.142 0-7.5 4.477-7.5 10 .017.478.01.946 0 1.406 0 3.65 1.338 7.189 2.5 10.5 1.195 3.406 2.917 6.39 4.531 9.438C24.531 126.064 30 135 30 135s5.468-8.937 7.969-13.656c1.614-3.047 3.336-6.032 4.531-9.438 1.162-3.311 2.5-6.85 2.5-10.5-.014-.487-.01-.957 0-1.406 0-5.523-3.358-10-7.5-10-4.142 0-7 3.477-7 9 0 1-1 1-1 0zM329.5 441c0 5.523-2.858 9-7 9-4.142 0-7.5-4.477-7.5-10 .017-.478.009-.946 0-1.406 0-3.65 1.338-7.189 2.5-10.5 1.195-3.406 2.917-6.39 4.531-9.438C324.531 413.936 330 405 330 405s5.468 8.937 7.969 13.656c1.614 3.047 3.336 6.032 4.531 9.438 1.162 3.311 2.5 6.85 2.5 10.5-.014.487-.009.957 0 1.406 0 5.523-3.358 10-7.5 10-4.142 0-7-3.477-7-9 0-1-1-1-1 0z" />
</svg>