<svg height="540" width="360" xmlns="http://www.w3.org/2000/svg">
    <path
        d="M20.364 30v20h10c2.77 0 5 2.23 5 5v15c0 2.77-2.23 5-5 5s-5-2.23-5-5v-5h-5v5c0 5.54 4.46 10 10 10s10-4.46 10-10V55c0-5.54-4.46-10-10-10h-5V35h15v-5h-15zM340.364 510v-20h-10c-2.77 0-5-2.23-5-5v-15c0-2.77 2.23-5 5-5s5 2.23 5 5v5h5v-5c0-5.54-4.46-10-10-10s-10 4.46-10 10v15c0 5.54 4.46 10 10 10h5v10h-15v5h15zM30.364 90s3 7.5 6.5 12.5 8.5 10 8.5 10-5 5-8.5 10-6.5 12.5-6.5 12.5-3-7.5-6.5-12.5-8.5-10-8.5-10 5-5 8.5-10 6.5-12.5 6.5-12.5M330.364 405s3 7.5 6.5 12.5 8.5 10 8.5 10-5 5-8.5 10-6.5 12.5-6.5 12.5-3-7.5-6.5-12.5-8.5-10-8.5-10 5-5 8.5-10 6.5-12.5 6.5-12.5M90.364 45s6 15 13 25 17 20 17 20-10 10-17 20-13 25-13 25-6-15-13-25-17-20-17-20 10-10 17-20 13-25 13-25M270.364 45s6 15 13 25 17 20 17 20-10 10-17 20-13 25-13 25-6-15-13-25-17-20-17-20 10-10 17-20 13-25 13-25M180.364 225s6 15 13 25 17 20 17 20-10 10-17 20-13 25-13 25-6-15-13-25-17-20-17-20 10-10 17-20 13-25 13-25M90.364 405s6 15 13 25 17 20 17 20-10 10-17 20-13 25-13 25-6-15-13-25-17-20-17-20 10-10 17-20 13-25 13-25M270.364 405s6 15 13 25 17 20 17 20-10 10-17 20-13 25-13 25-6-15-13-25-17-20-17-20 10-10 17-20 13-25 13-25" />
</svg>