<svg height="540" width="360" xmlns="http://www.w3.org/2000/svg">
    <path
        d="M20 30v10h5v-5h10L25 80h5l10-45v-5H20zM340 510v-10h-5v5h-10l10-45h-5l-10 45v5h20zM30 90s3 7.5 6.5 12.5 8.5 10 8.5 10-5 5-8.5 10S30 135 30 135s-3-7.5-6.5-12.5-8.5-10-8.5-10 5-5 8.5-10S30 90 30 90M330 405s3 7.5 6.5 12.5 8.5 10 8.5 10-5 5-8.5 10S330 450 330 450s-3-7.5-6.5-12.5-8.5-10-8.5-10 5-5 8.5-10S330 405 330 405M90 45s6 15 13 25 17 20 17 20-10 10-17 20-13 25-13 25-6-15-13-25-17-20-17-20 10-10 17-20 13-25 13-25M270 45s6 15 13 25 17 20 17 20-10 10-17 20-13 25-13 25-6-15-13-25-17-20-17-20 10-10 17-20 13-25 13-25M180 135s6 15 13 25 17 20 17 20-10 10-17 20-13 25-13 25-6-15-13-25-17-20-17-20 10-10 17-20 13-25 13-25M90 225s6 15 13 25 17 20 17 20-10 10-17 20-13 25-13 25-6-15-13-25-17-20-17-20 10-10 17-20 13-25 13-25M270 225s6 15 13 25 17 20 17 20-10 10-17 20-13 25-13 25-6-15-13-25-17-20-17-20 10-10 17-20 13-25 13-25M90 405s6 15 13 25 17 20 17 20-10 10-17 20-13 25-13 25-6-15-13-25-17-20-17-20 10-10 17-20 13-25 13-25M270 405s6 15 13 25 17 20 17 20-10 10-17 20-13 25-13 25-6-15-13-25-17-20-17-20 10-10 17-20 13-25 13-25" />
</svg>