<svg height="540" width="360" xmlns="http://www.w3.org/2000/svg">
    <path
        d="M30 30c-5.54 0-10 4.46-10 10v5c0 3.003 1.323 5.67 3.406 7.5C21.323 54.33 20 56.996 20 60v10c0 5.54 4.46 10 10 10s10-4.46 10-10V60c0-3.004-1.323-5.67-3.406-7.5C38.677 50.67 40 48.003 40 45v-5c0-5.54-4.46-10-10-10zm0 5c2.77 0 5 2.23 5 5v5c0 2.77-2.23 5-5 5s-5-2.23-5-5v-5c0-2.77 2.23-5 5-5zm0 20c2.77 0 5 2.23 5 5v10c0 2.77-2.23 5-5 5s-5-2.23-5-5V60c0-2.77 2.23-5 5-5zM330 510c-5.54 0-10-4.46-10-10v-5c0-3.004 1.323-5.67 3.406-7.5-2.083-1.83-3.406-4.496-3.406-7.5v-10c0-5.54 4.46-10 10-10s10 4.46 10 10v10c0 3.004-1.323 5.67-3.406 7.5 2.083 1.83 3.406 4.496 3.406 7.5v5c0 5.54-4.46 10-10 10zm0-5c2.77 0 5-2.23 5-5v-5c0-2.77-2.23-5-5-5s-5 2.23-5 5v5c0 2.77 2.23 5 5 5zm0-20c2.77 0 5-2.23 5-5v-10c0-2.77-2.23-5-5-5s-5 2.23-5 5v10c0 2.77 2.23 5 5 5zM90 45s6 15 13 25 17 20 17 20-10 10-17 20-13 25-13 25-6-15-13-25-17-20-17-20 10-10 17-20 13-25 13-25M270 45s6 15 13 25 17 20 17 20-10 10-17 20-13 25-13 25-6-15-13-25-17-20-17-20 10-10 17-20 13-25 13-25M180 135s6 15 13 25 17 20 17 20-10 10-17 20-13 25-13 25-6-15-13-25-17-20-17-20 10-10 17-20 13-25 13-25M90 225s6 15 13 25 17 20 17 20-10 10-17 20-13 25-13 25-6-15-13-25-17-20-17-20 10-10 17-20 13-25 13-25M270 225s6 15 13 25 17 20 17 20-10 10-17 20-13 25-13 25-6-15-13-25-17-20-17-20 10-10 17-20 13-25 13-25M180 315s6 15 13 25 17 20 17 20-10 10-17 20-13 25-13 25-6-15-13-25-17-20-17-20 10-10 17-20 13-25 13-25M90 405s6 15 13 25 17 20 17 20-10 10-17 20-13 25-13 25-6-15-13-25-17-20-17-20 10-10 17-20 13-25 13-25M270 405s6 15 13 25 17 20 17 20-10 10-17 20-13 25-13 25-6-15-13-25-17-20-17-20 10-10 17-20 13-25 13-25M30 90s3 7.5 6.5 12.5 8.5 10 8.5 10-5 5-8.5 10S30 135 30 135s-3-7.5-6.5-12.5-8.5-10-8.5-10 5-5 8.5-10S30 90 30 90M330 405s3 7.5 6.5 12.5 8.5 10 8.5 10-5 5-8.5 10S330 450 330 450s-3-7.5-6.5-12.5-8.5-10-8.5-10 5-5 8.5-10S330 405 330 405" />
</svg>